<?xml version="1.0" standalone="no"?>
<!DOCTYPE svg PUBLIC "-//W3C//DTD SVG 20010904//EN"
 "http://www.w3.org/TR/2001/REC-SVG-20010904/DTD/svg10.dtd">
<svg version="1.0" xmlns="http://www.w3.org/2000/svg"
 width="720.000000pt" height="720.000000pt" viewBox="0 0 720.000000 720.000000"
 preserveAspectRatio="xMidYMid meet">
<metadata>
Created by potrace 1.14, written by Peter Selinger 2001-2017
</metadata>
<g transform="translate(0.000000,720.000000) scale(0.100000,-0.100000)"
fill="#000000" stroke="none">
<path d="M3490 7129 c-19 -5 -43 -11 -52 -13 -36 -9 -110 -46 -218 -110 -61
-36 -113 -66 -115 -66 -2 0 -49 -27 -104 -60 -56 -33 -106 -60 -111 -60 -6 0
-10 -4 -10 -8 0 -4 -12 -13 -27 -20 -16 -7 -41 -21 -58 -30 -145 -83 -461
-267 -548 -318 -59 -35 -110 -64 -112 -64 -3 0 -29 -16 -59 -35 -30 -19 -57
-35 -59 -35 -4 0 -322 -183 -347 -200 -8 -6 -26 -16 -40 -23 -14 -7 -56 -31
-95 -53 -38 -23 -89 -52 -111 -65 -23 -13 -107 -62 -188 -109 -81 -47 -164
-94 -184 -106 -192 -109 -363 -210 -392 -232 -43 -32 -130 -124 -130 -137 0
-3 -11 -22 -24 -43 -12 -20 -24 -41 -26 -47 -1 -5 -4 -14 -6 -20 -33 -91 -33
-95 -33 -1705 0 -1674 0 -1643 44 -1722 8 -14 15 -33 15 -42 0 -9 3 -16 8 -16
4 0 16 -16 27 -36 36 -68 134 -145 315 -249 96 -55 182 -104 192 -110 9 -5 41
-23 70 -39 29 -15 60 -34 69 -42 8 -8 18 -14 21 -14 3 0 56 -29 119 -65 62
-36 119 -65 126 -65 7 0 13 -4 13 -10 0 -5 8 -10 18 -10 10 0 22 -4 28 -8 17
-15 137 -61 229 -88 78 -22 109 -26 235 -26 168 0 204 3 303 33 39 12 73 21
74 20 4 -1 95 50 129 73 43 29 124 104 124 116 0 5 6 13 13 17 38 25 100 154
135 283 l26 95 3 1590 c2 1546 1 1591 -17 1615 -19 25 -19 25 -214 28 -193 2
-195 2 -223 -22 l-29 -25 1 -1518 c0 -1221 -2 -1528 -13 -1571 -51 -208 -267
-308 -499 -232 -72 24 -216 96 -221 111 -2 5 -8 9 -14 9 -8 0 -158 85 -353
200 -16 9 -83 48 -148 85 -65 37 -122 77 -129 88 -8 15 -11 452 -10 1550 0
1749 -12 1552 102 1614 36 20 67 40 68 44 2 5 12 9 23 9 10 0 19 5 19 10 0 6
5 10 10 10 6 0 29 12 51 26 23 14 62 37 87 51 26 15 61 35 77 45 17 10 42 24
58 30 15 7 27 16 27 20 0 4 5 8 10 8 6 0 40 18 76 40 36 22 67 40 69 40 1 0
90 51 197 114 108 63 205 117 217 121 11 3 21 11 21 16 0 5 4 9 9 9 4 0 84 44
177 98 93 54 189 110 214 124 25 14 143 82 263 152 120 69 223 126 228 126 5
0 9 3 9 8 0 4 10 12 23 18 12 6 62 34 111 62 49 29 93 52 97 52 5 0 9 4 9 8 0
4 12 13 28 20 15 6 41 20 57 30 17 10 51 30 76 44 25 14 93 53 151 87 60 35
116 61 132 61 16 0 74 -26 135 -61 147 -86 170 -98 221 -127 25 -13 52 -31 61
-38 8 -8 19 -14 23 -14 6 0 184 -102 246 -140 42 -26 125 -70 132 -70 4 0 8
-4 8 -10 0 -5 4 -10 9 -10 4 0 58 -29 119 -64 61 -36 131 -76 154 -89 38 -22
91 -52 208 -120 19 -11 53 -30 75 -42 22 -13 108 -62 190 -111 83 -48 177
-103 210 -121 33 -19 74 -42 91 -52 62 -37 371 -214 424 -244 30 -16 62 -35
70 -41 8 -7 40 -25 70 -41 30 -16 61 -35 68 -42 7 -7 17 -13 22 -13 19 0 133
-75 147 -97 13 -20 15 -202 15 -1554 0 -1473 -1 -1533 -19 -1556 -10 -13 -40
-36 -68 -51 -27 -15 -51 -30 -53 -34 -2 -5 -8 -8 -12 -8 -5 0 -144 -79 -310
-175 -166 -96 -310 -177 -321 -180 -10 -4 -19 -11 -19 -16 0 -5 -4 -9 -10 -9
-5 0 -38 -17 -72 -38 -35 -21 -70 -42 -78 -46 -8 -4 -24 -12 -35 -19 -11 -7
-56 -33 -100 -58 -44 -25 -183 -106 -310 -179 -126 -73 -243 -140 -260 -149
-16 -9 -32 -18 -35 -21 -3 -3 -14 -10 -25 -16 -11 -6 -76 -43 -145 -83 -69
-40 -132 -76 -140 -81 -8 -5 -44 -26 -80 -47 -36 -21 -67 -38 -70 -38 -3 0
-16 -8 -30 -17 -116 -75 -484 -278 -505 -278 -25 0 -77 30 -525 295 -248 147
-224 139 -291 97 -60 -39 -200 -105 -279 -132 -100 -34 -130 -51 -130 -70 0
-21 39 -52 130 -104 36 -20 72 -41 80 -46 71 -45 233 -140 237 -140 3 0 25
-13 50 -30 24 -16 46 -30 49 -30 2 0 23 -12 47 -27 23 -14 43 -25 43 -22 1 2
10 -3 20 -12 11 -9 64 -42 119 -75 55 -32 114 -67 130 -76 107 -64 201 -94
305 -97 125 -4 212 24 366 115 41 24 79 44 84 44 6 0 10 5 10 10 0 6 6 10 13
10 7 0 28 11 47 23 19 13 60 37 90 54 59 32 656 376 778 449 40 23 81 46 92
49 11 4 20 11 20 16 0 5 5 9 10 9 6 0 40 18 76 40 36 22 67 40 69 40 1 0 54
30 116 66 63 37 130 76 149 86 19 11 91 53 160 93 288 168 442 255 451 255 5
0 9 5 9 10 0 6 4 10 9 10 5 0 64 32 132 72 68 39 138 79 154 88 163 93 225
153 288 279 l42 84 2 1657 3 1657 -22 54 c-56 138 -135 224 -291 317 -58 34
-108 62 -112 62 -3 0 -26 14 -50 30 -24 17 -46 30 -50 30 -3 0 -31 16 -61 35
-30 19 -61 35 -69 35 -8 0 -15 5 -15 10 0 6 -10 14 -22 19 -27 11 -348 196
-365 211 -7 5 -16 10 -21 10 -5 0 -21 9 -36 21 -14 11 -26 17 -26 13 0 -4 -8
0 -17 8 -10 8 -61 39 -113 68 -91 52 -349 200 -380 220 -8 5 -37 21 -65 36
-27 14 -57 32 -66 40 -8 8 -18 14 -21 14 -4 0 -52 27 -108 60 -56 33 -103 60
-105 60 -2 0 -49 27 -104 60 -56 33 -106 60 -111 60 -6 0 -10 5 -10 10 0 6 -5
10 -10 10 -6 0 -40 18 -76 40 -36 22 -67 40 -69 40 -2 0 -49 27 -105 60 -56
33 -106 60 -111 60 -5 0 -9 5 -9 10 0 6 -4 10 -8 10 -5 0 -76 38 -158 85 -82
47 -173 92 -204 102 -62 18 -226 25 -280 12z"/>
<path d="M4177 4974 c-1 -1 -38 -4 -82 -7 -69 -5 -139 -16 -270 -42 -53 -11
-189 -58 -234 -82 -24 -13 -48 -23 -52 -23 -5 0 -42 -23 -82 -50 -79 -54 -170
-141 -212 -203 -26 -37 -77 -133 -82 -152 -1 -5 -9 -35 -17 -65 -46 -161 -36
-395 20 -502 8 -14 14 -31 14 -38 0 -13 71 -120 103 -153 48 -50 130 -107 222
-152 53 -26 102 -48 108 -49 7 -1 44 -12 82 -23 39 -12 84 -24 100 -27 17 -4
50 -11 75 -17 25 -5 56 -11 70 -14 55 -9 107 -16 140 -20 19 -3 51 -7 70 -10
19 -2 58 -7 85 -10 28 -2 75 -7 105 -10 30 -3 66 -8 80 -10 14 -2 52 -6 85
-10 33 -3 69 -8 80 -10 11 -2 36 -7 55 -10 19 -2 46 -7 60 -10 13 -2 42 -7 64
-11 22 -3 43 -7 47 -9 3 -2 20 -7 38 -10 54 -9 184 -56 226 -81 93 -54 125
-115 120 -229 -4 -86 -8 -101 -35 -156 -87 -169 -329 -245 -765 -241 -140 1
-275 8 -325 17 -19 4 -46 8 -60 10 -14 2 -38 7 -55 11 -16 3 -35 7 -42 8 -7 1
-16 5 -19 9 -4 4 -14 7 -22 7 -9 0 -49 16 -89 37 -148 72 -220 177 -259 376
-16 84 -32 100 -96 103 -27 1 -52 4 -55 7 -3 3 -16 2 -30 -4 -17 -6 -22 -6
-17 3 5 7 3 8 -5 3 -7 -4 -64 -7 -128 -7 -103 -1 -118 -3 -140 -22 -23 -20
-25 -29 -24 -91 1 -39 3 -81 6 -95 3 -14 7 -38 9 -55 23 -157 106 -317 225
-435 112 -112 246 -189 433 -248 87 -29 122 -37 183 -48 11 -1 31 -5 45 -8 14
-4 45 -8 70 -11 25 -3 55 -7 66 -9 64 -13 464 -27 464 -16 0 3 28 5 63 6 85 1
206 15 267 31 14 3 29 5 34 4 4 -1 23 3 41 9 18 6 43 13 56 15 39 8 132 38
159 52 14 7 33 13 42 13 9 0 20 4 23 10 3 5 26 18 50 29 89 39 234 155 295
236 35 46 78 124 103 185 25 64 30 83 47 185 10 66 5 243 -10 304 -6 27 -13
57 -15 67 -2 11 -4 20 -5 22 -2 1 -3 5 -5 10 -1 4 -7 20 -13 35 -7 16 -12 33
-12 38 0 5 -3 9 -8 9 -4 0 -15 15 -25 33 -42 76 -143 164 -251 219 -55 28
-175 77 -201 82 -5 1 -35 10 -65 19 -30 9 -66 18 -80 20 -14 3 -43 9 -65 15
-22 5 -47 10 -55 11 -8 0 -62 9 -120 20 -58 11 -129 22 -159 26 -30 4 -63 9
-75 11 -12 3 -43 7 -71 9 -27 3 -61 7 -75 10 -14 3 -45 8 -70 11 -44 5 -69 9
-120 19 -14 2 -41 7 -60 9 -19 3 -60 10 -90 16 -30 6 -68 14 -85 16 -66 11
-222 66 -260 92 -57 39 -79 90 -78 179 3 205 151 316 463 350 130 14 442 7
551 -13 141 -26 251 -77 324 -151 52 -53 116 -164 124 -216 0 -4 7 -22 15 -41
8 -19 12 -37 9 -39 -9 -10 28 -55 50 -61 42 -13 385 -7 407 6 33 21 39 62 24
153 -3 17 -7 41 -9 55 -21 166 -126 364 -258 487 -46 43 -156 116 -217 144
-19 9 -46 21 -60 28 -28 12 -144 51 -175 57 -116 25 -194 38 -310 50 -55 6
-393 13 -398 8z"/>
</g>
</svg>
