<svg xmlns="http://www.w3.org/2000/svg" width="50px" height="52px" viewBox="0 0 50 51">
  <path fill="#38495a"
    d="M 37.535156 15.792969 C 37.535156 7.550781 31.824219 0.871094 24.777344 0.871094 C 17.734375 0.871094 12.019531 7.550781 12.019531 15.792969 C 12.019531 24.035156 17.734375 30.714844 24.777344 30.714844 C 31.824219 30.714844 37.535156 24.035156 37.535156 15.792969 Z M 37.535156 15.792969 " />
  <path fill="#1b2735"
    d="M 18.699219 1.582031 C 12.828125 4.570312 10.730469 8.277344 10.730469 15.285156 C 10.835938 20.433594 11.570312 22.804688 15.765625 30.945312 C 18.492188 36.199219 21.636719 41.660156 22.792969 43.101562 L 24.890625 45.675781 L 26.988281 43.101562 C 31.285156 37.746094 38.628906 21.980469 39.152344 16.828125 C 40.410156 4.878906 28.875 -3.675781 18.699219 1.582031 Z M 30.65625 3.539062 C 35.378906 5.703125 37.894531 11.058594 37.054688 17.242188 C 36.53125 21.671875 30.027344 35.785156 26.460938 40.421875 C 24.890625 42.484375 24.890625 42.484375 23.316406 40.421875 C 19.75 35.992188 13.035156 21.363281 12.617188 17.035156 C 11.359375 6.011719 20.796875 -1.097656 30.65625 3.539062 Z M 30.65625 3.539062 " />
  <path fill="#354556"
    d="M 8.003906 36.40625 C -2.382812 39.597656 -2.695312 45.472656 7.269531 48.871094 C 15.132812 51.550781 34.644531 51.550781 42.507812 48.871094 C 52.683594 45.472656 52.160156 39.597656 41.355469 36.40625 C 35.167969 34.550781 34.328125 34.550781 34.328125 35.890625 C 34.328125 36.40625 35.902344 37.125 37.894531 37.433594 C 42.089844 38.257812 47.964844 41.554688 47.964844 43.101562 C 47.964844 43.71875 45.761719 45.265625 43.035156 46.5 C 38.734375 48.460938 36.109375 48.769531 24.890625 48.769531 C 13.667969 48.769531 11.042969 48.460938 6.847656 46.5 C 4.015625 45.265625 1.8125 43.71875 1.8125 43.101562 C 1.8125 41.554688 7.6875 38.257812 11.882812 37.433594 C 13.875 37.125 15.449219 36.40625 15.449219 35.890625 C 15.449219 34.550781 13.875 34.652344 8.003906 36.40625 Z M 8.003906 36.40625 " />
  <path fill="#fff"
    d="M 24.996094 26.1875 C 24.703125 26.1875 24.402344 26.113281 24.144531 25.976562 L 21.433594 24.492188 C 21.027344 24.277344 21.226562 24.207031 21.359375 24.164062 C 21.898438 23.988281 22.007812 23.953125 22.585938 23.648438 C 22.644531 23.617188 22.726562 23.628906 22.785156 23.664062 L 24.867188 24.808594 C 24.941406 24.847656 25.046875 24.847656 25.117188 24.808594 L 33.230469 20.472656 C 33.304688 20.429688 33.355469 20.351562 33.355469 20.269531 L 33.355469 11.597656 C 33.355469 11.511719 33.304688 11.433594 33.226562 11.390625 L 25.117188 7.058594 C 25.042969 7.015625 24.941406 7.015625 24.867188 7.058594 L 16.765625 11.394531 C 16.683594 11.433594 16.636719 11.515625 16.636719 11.601562 L 16.636719 20.269531 C 16.636719 20.351562 16.683594 20.429688 16.765625 20.46875 L 18.988281 21.65625 C 20.195312 22.210938 20.933594 21.558594 20.933594 20.894531 L 20.933594 12.335938 C 20.933594 12.214844 21.039062 12.121094 21.167969 12.121094 L 22.199219 12.121094 C 22.324219 12.121094 22.433594 12.214844 22.433594 12.335938 L 22.433594 20.898438 C 22.433594 22.386719 21.554688 23.242188 20.03125 23.242188 C 19.5625 23.242188 19.191406 23.242188 18.164062 22.769531 L 16.039062 21.636719 C 15.511719 21.355469 15.1875 20.828125 15.1875 20.265625 L 15.1875 11.597656 C 15.1875 11.035156 15.511719 10.507812 16.039062 10.226562 L 24.144531 5.890625 C 24.65625 5.621094 25.339844 5.621094 25.847656 5.890625 L 33.960938 10.230469 C 34.488281 10.511719 34.8125 11.035156 34.8125 11.601562 L 34.8125 20.269531 C 34.8125 20.828125 34.488281 21.355469 33.960938 21.640625 L 25.847656 25.976562 C 25.589844 26.113281 25.292969 26.1875 24.996094 26.1875 Z M 31.542969 17.640625 C 31.542969 16.019531 30.359375 15.585938 27.867188 15.28125 C 25.347656 14.972656 25.09375 14.8125 25.09375 14.269531 C 25.09375 13.816406 25.308594 13.214844 27.175781 13.214844 C 28.839844 13.214844 29.453125 13.550781 29.707031 14.589844 C 29.730469 14.6875 29.828125 14.761719 29.9375 14.761719 L 30.992188 14.761719 C 31.058594 14.761719 31.117188 14.738281 31.164062 14.691406 C 31.207031 14.648438 31.230469 14.585938 31.222656 14.523438 C 31.0625 12.730469 29.773438 11.898438 27.175781 11.898438 C 24.859375 11.898438 23.480469 12.800781 23.480469 14.316406 C 23.480469 15.960938 24.855469 16.417969 27.074219 16.621094 C 29.730469 16.859375 29.9375 17.222656 29.9375 17.707031 C 29.9375 18.542969 29.207031 18.902344 27.5 18.902344 C 25.351562 18.902344 24.882812 18.402344 24.722656 17.414062 C 24.707031 17.308594 24.609375 17.230469 24.492188 17.230469 L 23.441406 17.230469 C 23.308594 17.230469 23.207031 17.328125 23.207031 17.445312 C 23.207031 18.710938 23.949219 20.21875 27.503906 20.21875 C 30.070312 20.214844 31.542969 19.277344 31.542969 17.640625 Z M 31.542969 17.640625 " />
</svg>
